<svg xmlns="http://www.w3.org/2000/svg" width="599" height="338" viewBox="0 0 599 338">
  <g id="Text" transform="translate(-375 -291)">
    <g id="Text-2" data-name="Text">
      <text id="Creative_Way_to_Showcase_Your_App" data-name="Creative Way to Showcase Your App" transform="translate(375 351)" fill="#fff" font-size="57" font-family="Poppins-Bold, Poppins" font-weight="700" letter-spacing="0.02em"><tspan x="0" y="0">Creative Way to </tspan><tspan x="0" y="86">Showcase Your App</tspan></text>
      <text id="Lorem_Ipsum_is_simply_dummy_text_of_the_printing_and_typesetting_industry_Lorem_Ipsum_is_simply" data-name="Lorem Ipsum is simply dummy text of the printing and typesetting industry Lorem Ipsum is simply" transform="translate(375 487)" fill="#fff" font-size="15" font-family="Poppins-Regular, Poppins" letter-spacing="0.083em"><tspan x="0" y="16">Lorem Ipsum is simply dummy text of the printing and </tspan><tspan x="0" y="46">typesetting industry Lorem Ipsum is simply</tspan></text>
    </g>
    <g id="Download" transform="translate(-560 529)">
      <g id="Rectangle_1909" data-name="Rectangle 1909" transform="translate(935 50)" fill="none" stroke="#fff" stroke-width="2">
        <rect width="160" height="50" rx="12" stroke="none"/>
        <rect x="1" y="1" width="158" height="48" rx="11" fill="none"/>
      </g>
      <text id="Download_Now" data-name="Download Now" transform="translate(961 82)" fill="#fff" font-size="16" font-family="Roboto-Medium, Roboto" font-weight="500"><tspan x="0" y="0">Download Now</tspan></text>
    </g>
    <g id="Watch_video" data-name="Watch video" transform="translate(-341 528)">
      <text id="Watch_Video-2" data-name="Watch Video" transform="translate(961 82)" fill="#fff" font-size="16" font-family="Roboto-Medium, Roboto" font-weight="500"><tspan x="0" y="0">Watch Video</tspan></text>
      <g id="Icon" transform="translate(335 -551)">
        <g id="Ellipse_63" data-name="Ellipse 63" transform="translate(561 601)" fill="none" stroke="#fb0" stroke-width="1">
          <circle cx="25" cy="25" r="25" stroke="none"/>
          <circle cx="25" cy="25" r="24.5" fill="none"/>
        </g>
        <circle id="Ellipse_64" data-name="Ellipse 64" cx="19" cy="19" r="19" transform="translate(567 607)" fill="#fb0"/>
        <g id="play_3_" data-name="play (3)" transform="translate(571.893 620)">
          <path id="Path_5406" data-name="Path 5406" d="M10.1.27c-1.1-.632-2-.114-2,1.156V10.8c0,1.272.894,1.789,2,1.158l8.2-4.7a1.206,1.206,0,0,0,0-2.29Z" fill="#fff"/>
        </g>
      </g>
    </g>
  </g>
</svg>
